<svg xmlns="http://www.w3.org/2000/svg" viewBox="120 50 460 290">
  <!-- Жёлтое солнце-арка -->
  <path d="M 507.71 212.25 C508.02,218.71 508.06,224.00 507.80,224.00 C506.57,224.00 506.00,222.32 505.95,218.58 C505.84,210.26 500.47,186.66 496.60,177.50 C495.67,175.30 494.15,171.70 493.23,169.50 C488.84,159.00 481.48,146.21 474.45,136.83 C465.13,124.39 448.17,107.42 437.95,100.32 C423.17,90.05 400.77,79.03 387.50,75.50 C367.31,70.13 341.43,67.84 324.43,69.93 C286.11,74.63 254.26,89.45 227.73,114.90 C200.77,140.78 184.04,172.09 178.00,208.00 C177.40,211.57 176.53,216.30 176.07,218.50 L 175.23 222.50 L 175.12 217.00 C174.92,206.48 176.97,192.71 181.24,176.00 C182.95,169.29 190.70,150.41 194.78,143.00 C205.53,123.47 223.16,103.21 240.94,89.93 C259.93,75.75 286.09,64.12 309.99,59.24 C316.68,57.87 323.53,57.51 342.00,57.53 C364.07,57.55 366.21,57.72 377.11,60.30 C395.83,64.72 418.60,74.03 430.00,81.94 C432.48,83.66 437.64,87.18 441.47,89.78 C450.72,96.05 468.98,114.50 476.72,125.40 C494.37,150.27 506.33,183.80 507.71,212.25 Z" fill="#EEC036"/>
  <!-- Красные горы -->
  <path d="M 567.06 329.25 C568.22,330.76 568.74,332.00 568.23,332.00 C567.28,332.00 531.78,292.82 523.38,282.52 C520.91,279.48 518.15,277.00 517.25,277.00 C516.35,277.00 514.01,278.05 512.05,279.32 C500.21,287.07 497.85,288.13 495.63,286.67 C493.85,285.51 483.56,267.28 464.76,232.00 C456.90,217.26 449.76,204.44 448.91,203.55 C448.35,202.96 448.00,203.28 448.00,204.39 C448.00,206.23 455.07,239.76 459.73,260.00 C461.19,266.33 462.41,273.72 462.44,276.42 C462.44,276.71 462.45,276.97 462.45,277.23 C462.48,278.61 462.51,279.59 462.10,280.34 C461.04,282.30 457.04,282.67 442.61,284.52 L 428.72 286.30 L 434.65 291.90 C437.91,294.98 442.82,299.52 445.55,302.00 C461.19,316.16 465.23,320.11 464.68,320.66 C464.34,320.99 458.59,316.82 451.89,311.38 C445.19,305.95 436.29,298.87 432.11,295.65 C421.87,287.79 420.00,285.96 420.00,283.87 C420.00,282.59 421.06,281.91 423.75,281.45 C435.44,279.45 453.59,275.69 454.16,275.14 C454.52,274.79 454.00,271.80 453.00,268.50 C452.00,265.20 448.64,253.27 445.53,242.00 C442.41,230.73 438.34,216.10 436.46,209.50 C434.59,202.90 431.71,192.32 430.07,186.00 C426.47,172.17 422.47,160.66 421.10,160.20 C420.16,159.89 400.99,167.15 398.19,168.88 C397.48,169.32 395.83,173.46 394.53,178.09 C389.08,197.40 385.48,209.95 377.90,236.00 C365.93,277.16 365.93,277.16 363.42,279.67 C358.62,284.47 357.09,283.50 335.59,262.11 C323.44,250.03 319.90,245.99 316.19,245.82 C314.43,245.74 312.64,246.53 309.88,247.73 C309.16,248.05 308.37,248.39 307.50,248.76 C293.76,254.52 278.42,260.00 276.04,260.00 C274.15,260.00 271.53,257.90 265.80,251.79 C261.56,247.27 257.79,243.87 257.42,244.25 C257.05,244.62 259.73,253.61 263.37,264.24 C267.02,274.87 270.00,284.50 270.00,285.66 C270.00,288.51 268.09,289.88 261.29,291.90 C258.10,292.85 255.50,294.14 255.50,294.77 C255.50,295.41 263.15,300.48 272.50,306.05 C302.15,323.71 301.52,324.00 267.87,308.16 C247.82,298.73 242.43,295.79 242.19,294.15 C241.93,292.45 243.45,291.29 250.90,287.55 L 259.93 283.01 L 258.07 278.76 C257.04,276.42 253.32,268.42 249.79,261.00 C246.26,253.57 242.10,244.45 240.53,240.72 C238.96,236.99 237.19,234.10 236.59,234.28 C235.61,234.59 228.80,243.86 215.46,263.00 C206.13,276.39 204.83,278.00 203.31,278.00 C202.45,278.00 198.49,276.20 194.50,274.00 C190.51,271.80 186.60,270.00 185.81,270.00 C185.01,270.00 170.95,283.74 154.55,300.54 C138.16,317.34 124.52,330.85 124.24,330.58 C123.75,330.09 125.21,328.14 133.50,318.18 C135.70,315.54 142.51,307.33 148.64,299.94 C178.97,263.35 181.98,260.00 184.55,260.00 C185.93,260.00 190.15,261.56 193.93,263.46 L 200.81 266.93 L 216.83 241.71 C225.64,227.85 234.06,215.04 235.53,213.25 C240.29,207.46 241.47,208.11 260.47,227.00 C269.88,236.35 278.33,244.00 279.25,244.00 C280.71,244.00 291.16,239.85 311.00,231.39 C321.40,226.96 321.70,227.09 338.58,243.48 C346.79,251.44 353.82,257.96 354.22,257.98 C354.62,257.99 355.90,254.74 357.08,250.75 C358.25,246.76 361.37,236.30 364.01,227.50 C369.04,210.74 380.03,171.92 382.07,163.70 C383.07,159.66 383.86,158.60 387.08,156.96 C395.76,152.53 425.60,142.00 429.47,142.00 C432.70,142.00 434.04,143.93 441.95,160.00 C445.88,167.98 449.98,176.07 451.07,178.00 C452.15,179.93 456.02,187.57 459.66,195.00 C463.30,202.43 473.02,222.23 481.25,239.00 C489.48,255.77 496.85,270.96 497.62,272.75 C498.39,274.54 499.53,276.00 500.14,276.00 C500.75,276.00 504.51,274.20 508.50,272.00 C519.32,266.03 519.42,266.07 529.38,279.25 C534.06,285.44 542.53,296.58 548.22,304.00 C553.91,311.42 560.00,319.52 561.76,322.00 C563.52,324.48 565.90,327.74 567.06,329.25 Z" fill="#E90A0B"/>
</svg>
