<svg xmlns="http://www.w3.org/2000/svg" width="710" height="533" viewBox="0 0 710 533">
<g>
<path d="M 234.75 406.37 C231.10,407.35 230.01,407.10 229.81,405.25 C229.70,404.29 229.59,394.16 229.56,382.75 L 229.50 362.00 L 233.63 362.00 C236.07,362.00 238.26,362.61 239.00,363.50 C239.68,364.32 243.55,366.82 247.59,369.05 C251.64,371.29 255.19,373.50 255.48,373.97 C256.44,375.52 253.95,380.43 250.28,384.20 L 246.69 387.90 L 249.59 391.57 C251.19,393.58 253.80,397.04 255.40,399.25 L 258.30 403.27 L 255.90 405.11 C252.39,407.81 251.54,407.50 247.60,402.13 C242.64,395.38 241.59,394.62 239.06,395.97 C237.46,396.82 237.00,398.05 237.00,401.42 C237.00,405.08 236.65,405.86 234.75,406.37 ZM 177.75 406.37 C177.44,406.45 177.14,406.54 176.87,406.62 C175.73,406.95 174.90,407.18 174.29,406.92 C172.63,406.19 172.62,401.70 172.57,385.00 C172.57,383.51 172.57,381.93 172.56,380.25 L 172.50 362.00 L 176.00 362.06 C180.54,362.12 198.36,372.79 198.80,375.70 C198.98,376.92 197.32,379.65 194.44,382.85 L 189.79 388.03 L 192.64 391.63 C194.21,393.61 196.85,397.02 198.50,399.21 L 201.49 403.18 L 199.13 405.09 C195.67,407.90 194.54,407.51 190.60,402.13 C185.35,394.98 184.38,394.35 181.98,396.52 C180.68,397.69 180.00,399.59 180.00,402.04 C180.00,405.06 179.57,405.88 177.75,406.37 ZM 313.43 407.02 C309.89,408.37 309.21,408.26 308.67,406.25 C305.39,394.01 304.97,393.33 303.00,397.00 C301.73,399.36 299.14,399.57 296.44,397.53 C293.26,395.12 292.25,395.75 290.92,400.93 C290.02,404.46 289.07,406.01 287.58,406.41 C282.12,407.88 281.81,406.36 285.41,395.67 C286.74,391.73 289.29,383.19 291.09,376.70 C294.59,364.05 295.34,362.55 298.62,361.58 C300.34,361.07 300.97,361.56 301.99,364.22 C302.67,366.03 304.48,370.65 306.00,374.50 C309.94,384.50 316.00,402.67 316.00,404.50 C316.00,405.35 314.85,406.49 313.43,407.02 ZM 560.60 405.16 C556.70,406.79 552.97,408.35 552.33,408.64 C549.66,409.81 549.00,404.80 549.00,383.51 L 549.00 361.88 L 556.50 362.50 L 556.77 380.25 C556.95,391.55 557.42,398.00 558.07,398.00 C558.64,398.00 560.36,397.35 561.90,396.55 C564.57,395.17 564.72,394.69 565.28,386.14 C565.60,381.21 565.61,373.82 565.30,369.73 C564.66,361.36 565.41,360.10 569.92,361.97 C572.44,363.01 572.79,363.76 573.36,369.21 C573.71,372.56 574.00,380.62 574.00,387.12 L 574.00 398.95 L 570.85 400.58 C569.12,401.47 564.51,403.54 560.60,405.16 ZM 416.48 405.90 C415.94,406.43 414.32,407.15 412.89,407.50 C410.27,408.15 409.00,406.85 409.00,403.54 C409.00,402.83 408.27,400.50 407.38,398.37 C405.76,394.50 405.75,394.50 404.26,396.75 C402.54,399.32 399.39,399.61 396.56,397.47 C393.67,395.28 393.30,395.56 391.92,400.93 C391.02,404.46 390.07,406.01 388.58,406.41 C383.12,407.88 382.81,406.36 386.41,395.67 C387.74,391.73 390.29,383.19 392.09,376.70 C395.58,364.09 396.34,362.54 399.57,361.59 C401.42,361.05 402.10,362.20 406.14,372.74 C413.69,392.44 417.56,404.84 416.48,405.90 ZM 135.50 404.43 C132.20,405.67 127.59,406.99 125.25,407.36 L 121.00 408.02 L 121.00 400.76 C120.99,396.77 120.70,387.08 120.34,379.24 L 119.69 364.97 L 124.09 365.14 C126.95,365.24 130.04,364.52 132.88,363.06 C137.73,360.59 139.67,361.31 140.22,365.81 C140.46,367.77 139.57,368.51 134.26,370.81 C128.20,373.42 128.02,373.61 128.01,377.25 C128.00,381.39 128.35,381.59 132.00,379.50 C135.68,377.40 137.54,377.69 138.85,380.57 C140.35,383.86 140.15,384.12 134.07,386.97 C129.12,389.28 129.00,389.45 129.00,393.67 C129.00,396.05 129.32,398.00 129.72,398.00 C130.11,398.00 132.38,397.26 134.76,396.35 C139.57,394.51 140.70,395.03 141.18,399.33 C141.48,401.96 141.07,402.33 135.50,404.43 ZM 510.00 369.00 L 510.00 407.00 L 502.00 407.00 L 502.00 367.74 L 498.51 368.31 C492.81,369.23 489.17,363.75 494.59,362.39 C497.06,361.77 520.10,362.78 520.87,363.54 C521.07,363.74 520.95,365.05 520.60,366.45 C520.02,368.76 519.48,369.00 514.98,369.00 ZM 451.76 406.08 C449.64,407.20 448.88,407.21 447.18,406.13 C446.17,405.49 445.74,400.10 445.39,383.58 L 444.92 361.87 L 448.71 362.19 L 452.50 362.50 L 452.77 379.75 C452.93,389.65 453.45,397.00 453.99,397.00 C454.50,397.00 457.24,396.09 460.07,394.97 C465.97,392.65 468.00,393.42 468.00,398.00 C468.00,400.54 467.46,400.91 460.75,402.95 C456.76,404.16 452.72,405.57 451.76,406.08 ZM 81.00 369.10 L 81.00 407.00 L 74.00 407.00 L 73.76 393.25 C73.63,385.69 73.63,376.85 73.76,373.62 L 74.00 367.74 L 70.09 368.26 C65.92,368.82 64.00,367.74 64.00,364.82 C64.00,362.19 67.64,361.68 80.59,362.48 L 92.11 363.20 L 91.81 365.85 C91.52,368.30 91.09,368.52 86.25,368.80 ZM 619.54 400.78 C615.94,408.28 614.28,409.39 610.63,406.72 C608.99,405.52 609.06,405.04 611.88,399.09 L 614.88 392.75 L 601.70 380.21 L 606.46 371.36 C609.07,366.49 611.50,362.21 611.85,361.86 C613.03,360.69 619.00,362.18 619.00,363.63 C619.00,364.40 617.16,368.06 614.92,371.76 L 610.83 378.48 L 616.94 383.99 C620.65,387.34 623.04,390.30 623.02,391.53 C623.01,392.64 621.44,396.81 619.54,400.78 ZM 603.25 464.02 C599.93,467.70 594.76,468.72 590.78,466.49 C587.23,464.50 586.00,462.07 586.00,457.02 C586.00,450.97 589.30,448.00 596.00,448.00 C600.07,448.00 601.58,448.49 603.55,450.45 C607.07,453.97 606.94,459.93 603.25,464.02 ZM 443.25 464.02 C439.93,467.70 434.76,468.72 430.78,466.49 C425.06,463.29 424.16,455.69 428.92,450.92 C432.87,446.98 439.85,446.76 443.55,450.45 C447.07,453.97 446.94,459.93 443.25,464.02 ZM 127.06 465.97 C126.00,466.54 122.51,467.00 119.32,467.00 L 113.50 467.00 L 114.00 458.82 C114.38,452.53 114.17,450.31 113.06,449.21 C111.82,447.96 112.71,447.82 119.91,448.15 C127.15,448.48 128.44,448.82 130.10,450.87 C133.42,454.98 131.71,463.48 127.06,465.97 ZM 593.29 465.48 C596.94,467.02 599.59,466.43 601.53,463.65 C604.10,459.98 603.00,452.03 599.60,449.77 C597.64,448.46 592.71,448.96 590.83,450.65 C589.60,451.77 589.00,453.71 589.00,456.57 C589.00,462.37 589.79,464.01 593.29,465.48 ZM 434.36 466.01 C437.54,467.29 437.88,467.21 440.55,464.55 C443.76,461.33 444.01,454.01 441.00,451.00 C438.20,448.20 432.59,448.32 430.56,451.22 C427.29,455.88 429.38,464.00 434.36,466.01 ZM 117.00 448.74 L 117.00 466.00 L 120.55 466.00 C125.50,466.00 129.00,462.37 129.00,457.24 C129.00,451.82 127.23,449.89 121.69,449.27 ZM 469.25 466.34 C469.94,466.62 468.70,466.84 466.50,466.84 C464.30,466.84 463.06,466.62 463.75,466.34 C464.61,465.99 465.00,463.23 465.00,457.50 C465.00,451.77 464.61,449.01 463.75,448.66 C463.06,448.38 465.28,448.12 468.68,448.08 C473.05,448.02 475.32,448.46 476.43,449.57 C478.57,451.72 478.42,452.67 475.45,455.64 C473.02,458.07 472.97,458.31 474.52,460.66 C475.41,462.02 477.00,464.00 478.07,465.07 C479.98,466.98 479.98,467.00 478.01,467.00 C476.79,467.00 474.69,465.17 472.56,462.25 L 469.11 457.50 L 471.51 456.68 C476.33,455.04 475.44,449.00 470.38,449.00 C468.06,449.00 468.00,449.22 468.00,457.42 C468.00,463.21 468.39,465.99 469.25,466.34 ZM 500.38 466.23 C500.99,466.64 500.15,466.97 498.50,466.97 C496.85,466.97 495.97,466.64 496.55,466.23 C497.12,465.83 499.33,461.56 501.45,456.75 C503.58,451.94 505.58,448.01 505.91,448.03 C506.23,448.04 508.02,451.75 509.88,456.28 C511.74,460.80 513.96,465.06 514.82,465.75 C516.14,466.80 515.76,467.00 512.44,466.98 C509.86,466.97 508.97,466.67 509.85,466.11 C510.91,465.44 510.96,464.79 510.07,463.13 C508.39,459.99 501.28,460.07 500.09,463.25 C499.55,464.69 499.65,465.76 500.38,466.23 ZM 93.19 459.05 C93.20,463.49 93.04,467.29 92.83,467.51 C92.11,468.23 90.41,466.51 84.45,459.07 L 78.50 451.64 L 78.20 458.48 C77.99,463.28 78.29,465.57 79.20,466.15 C80.02,466.67 79.22,466.96 77.00,466.95 C74.14,466.94 73.82,466.75 75.25,465.92 C76.67,465.09 77.00,463.49 77.00,457.50 C77.00,451.51 76.67,449.91 75.25,449.08 C73.75,448.21 73.89,448.06 76.21,448.03 C78.41,448.01 80.15,449.52 85.46,456.10 L 92.00 464.20 L 92.00 456.68 C92.00,451.61 91.59,449.00 90.75,448.66 C90.06,448.38 90.99,448.12 92.82,448.08 C95.76,448.01 95.97,448.17 94.66,449.49 C93.58,450.56 93.17,453.21 93.19,459.05 ZM 642.72 449.25 C641.43,450.22 640.99,452.48 640.78,459.22 C640.59,465.05 640.15,467.70 639.45,467.22 C638.87,466.82 635.72,463.16 632.45,459.07 L 626.50 451.64 L 626.20 458.48 C625.99,463.28 626.29,465.57 627.20,466.15 C628.05,466.69 627.49,466.97 625.55,466.98 C623.26,467.00 622.87,466.73 623.80,465.80 C624.51,465.09 625.00,461.66 625.00,457.35 C625.00,451.50 624.66,449.90 623.25,449.08 C621.74,448.20 621.86,448.06 624.13,448.03 C626.22,448.01 628.10,449.65 633.38,456.15 L 640.00 464.29 L 640.00 456.73 C640.00,451.61 639.60,449.00 638.75,448.66 C638.06,448.38 639.05,448.12 640.94,448.08 C643.91,448.01 644.15,448.17 642.72,449.25 ZM 369.25 466.34 C369.94,466.62 368.70,466.84 366.50,466.84 C364.30,466.84 363.06,466.62 363.75,466.34 C364.61,465.99 365.00,463.23 365.00,457.50 C365.00,451.77 364.61,449.01 363.75,448.66 C363.06,448.38 365.12,448.12 368.32,448.08 C371.51,448.04 375.00,448.47 376.07,449.04 C380.24,451.27 377.04,458.11 371.92,457.90 L 369.50 457.80 L 372.00 457.11 C376.76,455.79 375.40,449.00 370.38,449.00 C368.06,449.00 368.00,449.22 368.00,457.42 C368.00,463.21 368.39,465.99 369.25,466.34 ZM 56.92 465.25 C56.99,466.77 56.05,466.99 49.75,466.92 C45.76,466.88 43.06,466.62 43.75,466.34 C44.61,465.99 45.00,463.23 45.00,457.50 C45.00,451.77 44.61,449.01 43.75,448.66 C43.06,448.38 45.76,448.12 49.75,448.08 C56.63,448.00 57.00,448.11 56.97,450.25 C56.94,452.26 56.83,452.31 55.92,450.75 C55.26,449.62 53.68,449.00 51.45,449.00 C48.09,449.00 48.00,449.11 48.00,453.00 C48.00,456.75 48.18,457.00 50.92,457.00 C52.52,457.00 54.06,456.44 54.34,455.75 C54.62,455.06 54.84,455.85 54.84,457.50 C54.84,459.15 54.62,459.94 54.34,459.25 C54.06,458.56 52.52,458.00 50.92,458.00 C48.18,458.00 48.00,458.25 48.00,462.00 C48.00,465.99 48.01,466.00 51.92,466.00 C54.11,466.00 56.05,465.45 56.34,464.75 C56.64,464.00 56.87,464.20 56.92,465.25 ZM 312.41 466.15 C312.12,466.62 308.65,466.96 304.69,466.92 C300.74,466.88 298.06,466.62 298.75,466.34 C299.61,465.99 300.00,463.23 300.00,457.50 C300.00,451.77 299.61,449.01 298.75,448.66 C298.06,448.38 300.76,448.12 304.75,448.08 C311.63,448.00 312.00,448.11 311.97,450.25 C311.94,452.26 311.83,452.31 310.92,450.75 C310.26,449.62 308.68,449.00 306.45,449.00 C303.09,449.00 303.00,449.11 303.00,453.00 C303.00,456.75 303.18,457.00 305.92,457.00 C307.52,457.00 309.06,456.44 309.34,455.75 C309.62,455.06 309.84,455.85 309.84,457.50 C309.84,459.15 309.62,459.94 309.34,459.25 C309.06,458.56 307.52,458.00 305.92,458.00 C303.17,458.00 303.00,458.23 303.00,462.13 L 303.00 466.25 L 307.97 465.78 C310.70,465.51 312.70,465.68 312.41,466.15 ZM 540.25 466.34 C540.94,466.62 539.70,466.84 537.50,466.84 C535.30,466.84 534.06,466.62 534.75,466.34 C535.60,465.99 536.00,463.31 536.00,457.92 C536.00,450.21 535.94,450.00 533.58,450.00 C532.25,450.00 530.94,450.56 530.66,451.25 C530.38,451.94 530.12,451.49 530.08,450.25 C530.00,448.10 530.35,448.00 538.00,448.00 C542.40,448.00 545.99,448.34 545.98,448.75 C545.96,450.15 544.03,452.59 544.02,451.25 C544.01,450.56 542.88,450.00 541.50,450.00 C539.04,450.00 539.00,450.14 539.00,457.92 C539.00,463.31 539.40,465.99 540.25,466.34 ZM 333.68 464.61 C332.67,465.92 331.26,467.00 330.53,467.00 C329.76,467.00 330.46,465.65 332.15,463.84 C337.29,458.34 337.37,457.64 333.50,452.57 C330.36,448.46 330.22,448.00 332.04,448.00 C333.31,448.00 334.87,449.36 336.22,451.64 L 338.36 455.28 L 340.68 452.39 C341.95,450.80 342.99,449.16 343.00,448.75 C343.00,448.34 344.01,448.01 345.25,448.03 C347.13,448.06 347.24,448.21 345.89,449.00 C345.01,449.52 343.12,451.46 341.70,453.32 L 339.12 456.71 L 342.59 461.85 C345.56,466.27 345.79,467.00 344.21,467.00 C343.09,467.00 341.45,465.36 340.01,462.80 C337.91,459.07 337.53,458.80 336.58,460.41 C335.98,461.40 334.68,463.29 333.68,464.61 ZM 223.30 464.83 C220.12,468.66 212.00,468.59 212.00,464.74 C212.00,462.76 212.09,462.73 213.29,464.39 C214.20,465.63 215.62,466.06 218.04,465.83 C221.11,465.54 221.50,465.18 221.50,462.60 C221.50,460.01 221.00,459.56 216.75,458.32 C212.27,457.02 212.00,456.74 212.00,453.50 C212.00,449.50 214.02,448.00 219.43,448.00 C222.47,448.00 223.00,448.33 222.97,450.25 C222.94,452.26 222.83,452.31 221.92,450.75 C221.36,449.79 219.89,449.00 218.65,449.00 C213.73,449.00 212.10,454.57 216.75,455.52 C224.16,457.04 226.73,460.69 223.30,464.83 ZM 252.18 465.33 C248.43,468.73 240.98,468.29 241.03,464.68 C241.06,462.72 241.16,462.67 242.08,464.25 C243.38,466.48 249.27,466.59 251.07,464.42 C252.90,462.21 251.17,459.76 246.89,458.50 C242.07,457.08 241.00,456.19 241.00,453.60 C241.00,450.18 244.05,448.00 248.83,448.00 C252.33,448.00 253.00,448.32 253.00,450.00 C253.00,451.10 252.55,452.00 252.00,452.00 C251.45,452.00 251.00,451.33 251.00,450.50 C251.00,448.46 245.64,448.52 243.93,450.58 C242.32,452.52 243.77,455.35 246.61,455.81 C251.67,456.63 254.00,458.25 254.00,460.97 C254.00,462.46 253.18,464.43 252.18,465.33 ZM 180.63 379.75 C180.28,383.74 180.38,387.00 180.86,387.00 C181.70,387.00 191.00,377.52 191.00,376.65 C191.00,376.09 181.86,371.79 181.53,372.19 C181.39,372.36 180.99,375.76 180.63,379.75 ZM 195.00 465.30 C195.00,466.76 193.89,467.00 187.25,466.97 C181.50,466.95 179.95,466.68 181.25,465.92 C182.67,465.09 183.00,463.49 183.00,457.50 C183.00,451.51 182.67,449.91 181.25,449.08 C179.94,448.32 181.34,448.05 186.75,448.03 C193.55,448.00 194.00,448.13 194.00,450.19 C194.00,452.23 193.91,452.26 192.70,450.61 C191.84,449.42 190.41,448.94 188.45,449.16 C185.82,449.46 185.47,449.91 185.18,453.37 L 184.87 457.23 L 188.43 456.82 C190.61,456.56 192.00,456.83 192.00,457.50 C192.00,458.17 190.62,458.44 188.50,458.19 C185.00,457.78 185.00,457.78 185.00,461.89 C185.00,465.98 185.02,466.00 188.80,466.00 C190.89,466.00 193.14,465.46 193.80,464.80 C194.73,463.87 195.00,463.98 195.00,465.30 ZM 237.57 379.75 C237.16,384.06 237.26,387.00 237.81,387.00 C239.02,387.00 247.00,378.35 247.00,377.04 C247.00,376.08 239.09,371.53 238.53,372.18 C238.38,372.36 237.95,375.76 237.57,379.75 ZM 162.92 465.25 C162.99,466.74 162.06,467.00 156.75,467.00 L 150.50 467.00 L 150.82 458.09 C151.10,450.16 150.94,449.12 149.32,448.70 C148.32,448.44 149.52,448.22 152.00,448.19 C154.48,448.17 155.94,448.38 155.25,448.66 C154.39,449.01 154.00,451.79 154.00,457.58 L 154.00 466.00 L 157.92 466.00 C160.11,466.00 162.05,465.45 162.34,464.75 C162.64,464.00 162.87,464.20 162.92,465.25 ZM 296.19 384.75 C295.07,388.74 294.42,392.00 294.75,392.00 C295.08,392.00 296.13,391.29 297.09,390.42 C298.49,389.15 299.26,389.07 301.00,390.00 C302.20,390.64 303.30,391.01 303.45,390.83 C303.73,390.50 299.94,377.85 299.33,377.08 C298.71,376.31 298.23,377.49 296.19,384.75 ZM 568.25 466.34 C568.94,466.62 567.70,466.84 565.50,466.84 C563.30,466.84 562.06,466.62 562.75,466.34 C563.61,465.99 564.00,463.23 564.00,457.50 C564.00,451.77 563.61,449.01 562.75,448.66 C562.06,448.38 563.53,448.17 566.00,448.19 C568.47,448.22 569.71,448.44 568.75,448.69 C567.26,449.08 567.00,450.38 567.00,457.49 C567.00,463.23 567.39,465.99 568.25,466.34 ZM 396.45 387.25 C395.02,392.33 395.32,392.92 398.09,390.42 C399.44,389.20 400.29,389.09 401.85,389.92 C404.97,391.59 405.00,391.41 402.80,384.75 C400.25,377.02 399.30,375.89 398.45,379.61 C398.09,381.20 397.19,384.64 396.45,387.25 ZM 408.98 465.25 C409.00,466.73 408.04,467.00 402.75,467.00 L 396.50 467.00 L 396.82 458.09 C397.10,450.16 396.94,449.12 395.32,448.70 C394.32,448.44 395.50,448.18 397.94,448.12 C401.77,448.02 402.14,448.18 400.64,449.27 C399.21,450.32 398.96,451.85 399.20,458.02 L 399.50 465.50 L 403.40 465.82 C405.84,466.02 407.61,465.65 408.13,464.82 C408.77,463.82 408.97,463.92 408.98,465.25 ZM 502.00 459.65 C502.00,459.84 503.35,460.00 505.00,460.00 C506.65,460.00 508.00,459.57 508.00,459.05 C508.00,457.47 505.73,453.00 504.94,453.00 C504.34,453.00 502.00,458.30 502.00,459.65 Z" fill="rgb(45,45,44)"/>
<path d="M 567.06 329.25 C568.22,330.76 568.74,332.00 568.23,332.00 C567.28,332.00 531.78,292.82 523.38,282.52 C520.91,279.48 518.15,277.00 517.25,277.00 C516.35,277.00 514.01,278.05 512.05,279.32 C500.21,287.07 497.85,288.13 495.63,286.67 C493.85,285.51 483.56,267.28 464.76,232.00 C456.90,217.26 449.76,204.44 448.91,203.55 C448.35,202.96 448.00,203.28 448.00,204.39 C448.00,206.23 455.07,239.76 459.73,260.00 C461.19,266.33 462.41,273.72 462.44,276.42 C462.44,276.71 462.45,276.97 462.45,277.23 C462.48,278.61 462.51,279.59 462.10,280.34 C461.04,282.30 457.04,282.67 442.61,284.52 L 428.72 286.30 L 434.65 291.90 C437.91,294.98 442.82,299.52 445.55,302.00 C461.19,316.16 465.23,320.11 464.68,320.66 C464.34,320.99 458.59,316.82 451.89,311.38 C445.19,305.95 436.29,298.87 432.11,295.65 C421.87,287.79 420.00,285.96 420.00,283.87 C420.00,282.59 421.06,281.91 423.75,281.45 C435.44,279.45 453.59,275.69 454.16,275.14 C454.52,274.79 454.00,271.80 453.00,268.50 C452.00,265.20 448.64,253.27 445.53,242.00 C442.41,230.73 438.34,216.10 436.46,209.50 C434.59,202.90 431.71,192.32 430.07,186.00 C426.47,172.17 422.47,160.66 421.10,160.20 C420.16,159.89 400.99,167.15 398.19,168.88 C397.48,169.32 395.83,173.46 394.53,178.09 C389.08,197.40 385.48,209.95 377.90,236.00 C365.93,277.16 365.93,277.16 363.42,279.67 C358.62,284.47 357.09,283.50 335.59,262.11 C323.44,250.03 319.90,245.99 316.19,245.82 C314.43,245.74 312.64,246.53 309.88,247.73 C309.16,248.05 308.37,248.39 307.50,248.76 C293.76,254.52 278.42,260.00 276.04,260.00 C274.15,260.00 271.53,257.90 265.80,251.79 C261.56,247.27 257.79,243.87 257.42,244.25 C257.05,244.62 259.73,253.61 263.37,264.24 C267.02,274.87 270.00,284.50 270.00,285.66 C270.00,288.51 268.09,289.88 261.29,291.90 C258.10,292.85 255.50,294.14 255.50,294.77 C255.50,295.41 263.15,300.48 272.50,306.05 C302.15,323.71 301.52,324.00 267.87,308.16 C247.82,298.73 242.43,295.79 242.19,294.15 C241.93,292.45 243.45,291.29 250.90,287.55 L 259.93 283.01 L 258.07 278.76 C257.04,276.42 253.32,268.42 249.79,261.00 C246.26,253.57 242.10,244.45 240.53,240.72 C238.96,236.99 237.19,234.10 236.59,234.28 C235.61,234.59 228.80,243.86 215.46,263.00 C206.13,276.39 204.83,278.00 203.31,278.00 C202.45,278.00 198.49,276.20 194.50,274.00 C190.51,271.80 186.60,270.00 185.81,270.00 C185.01,270.00 170.95,283.74 154.55,300.54 C138.16,317.34 124.52,330.85 124.24,330.58 C123.75,330.09 125.21,328.14 133.50,318.18 C135.70,315.54 142.51,307.33 148.64,299.94 C178.97,263.35 181.98,260.00 184.55,260.00 C185.93,260.00 190.15,261.56 193.93,263.46 L 200.81 266.93 L 216.83 241.71 C225.64,227.85 234.06,215.04 235.53,213.25 C240.29,207.46 241.47,208.11 260.47,227.00 C269.88,236.35 278.33,244.00 279.25,244.00 C280.71,244.00 291.16,239.85 311.00,231.39 C321.40,226.96 321.70,227.09 338.58,243.48 C346.79,251.44 353.82,257.96 354.22,257.98 C354.62,257.99 355.90,254.74 357.08,250.75 C358.25,246.76 361.37,236.30 364.01,227.50 C369.04,210.74 380.03,171.92 382.07,163.70 C383.07,159.66 383.86,158.60 387.08,156.96 C395.76,152.53 425.60,142.00 429.47,142.00 C432.70,142.00 434.04,143.93 441.95,160.00 C445.88,167.98 449.98,176.07 451.07,178.00 C452.15,179.93 456.02,187.57 459.66,195.00 C463.30,202.43 473.02,222.23 481.25,239.00 C489.48,255.77 496.85,270.96 497.62,272.75 C498.39,274.54 499.53,276.00 500.14,276.00 C500.75,276.00 504.51,274.20 508.50,272.00 C519.32,266.03 519.42,266.07 529.38,279.25 C534.06,285.44 542.53,296.58 548.22,304.00 C553.91,311.42 560.00,319.52 561.76,322.00 C563.52,324.48 565.90,327.74 567.06,329.25 Z" fill="rgb(233,10,11)"/>
<path d="M 507.71 212.25 C508.02,218.71 508.06,224.00 507.80,224.00 C506.57,224.00 506.00,222.32 505.95,218.58 C505.84,210.26 500.47,186.66 496.60,177.50 C495.67,175.30 494.15,171.70 493.23,169.50 C488.84,159.00 481.48,146.21 474.45,136.83 C465.13,124.39 448.17,107.42 437.95,100.32 C423.17,90.05 400.77,79.03 387.50,75.50 C367.31,70.13 341.43,67.84 324.43,69.93 C286.11,74.63 254.26,89.45 227.73,114.90 C200.77,140.78 184.04,172.09 178.00,208.00 C177.40,211.57 176.53,216.30 176.07,218.50 L 175.23 222.50 L 175.12 217.00 C174.92,206.48 176.97,192.71 181.24,176.00 C182.95,169.29 190.70,150.41 194.78,143.00 C205.53,123.47 223.16,103.21 240.94,89.93 C259.93,75.75 286.09,64.12 309.99,59.24 C316.68,57.87 323.53,57.51 342.00,57.53 C364.07,57.55 366.21,57.72 377.11,60.30 C395.83,64.72 418.60,74.03 430.00,81.94 C432.48,83.66 437.64,87.18 441.47,89.78 C450.72,96.05 468.98,114.50 476.72,125.40 C494.37,150.27 506.33,183.80 507.71,212.25 Z" fill="rgb(238,192,54)"/>
<path d="M 0.00 266.50 L 0.00 0.00 L 355.00 0.00 L 710.00 0.00 L 710.00 266.50 L 710.00 533.00 L 355.00 533.00 L 0.00 533.00 L 0.00 266.50 ZM 93.19 459.05 C93.17,453.21 93.58,450.56 94.66,449.49 C95.97,448.17 95.76,448.01 92.82,448.08 C90.99,448.12 90.06,448.38 90.75,448.66 C91.59,449.00 92.00,451.61 92.00,456.68 L 92.00 464.20 L 85.46 456.10 C80.15,449.52 78.41,448.01 76.21,448.03 C73.89,448.06 73.75,448.21 75.25,449.08 C76.67,449.91 77.00,451.51 77.00,457.50 C77.00,463.49 76.67,465.09 75.25,465.92 C73.82,466.75 74.14,466.94 77.00,466.95 C79.22,466.96 80.02,466.67 79.20,466.15 C78.29,465.57 77.99,463.28 78.20,458.48 L 78.50 451.64 L 84.45 459.07 C90.41,466.51 92.11,468.23 92.83,467.51 C93.04,467.29 93.20,463.49 93.19,459.05 ZM 223.30 464.83 C226.73,460.69 224.16,457.04 216.75,455.52 C212.10,454.57 213.73,449.00 218.65,449.00 C219.89,449.00 221.36,449.79 221.92,450.75 C222.83,452.31 222.94,452.26 222.97,450.25 C223.00,448.33 222.47,448.00 219.43,448.00 C214.02,448.00 212.00,449.50 212.00,453.50 C212.00,456.74 212.27,457.02 216.75,458.32 C221.00,459.56 221.50,460.01 221.50,462.60 C221.50,465.18 221.11,465.54 218.04,465.83 C215.62,466.06 214.20,465.63 213.29,464.39 C212.09,462.73 212.00,462.76 212.00,464.74 C212.00,468.59 220.12,468.66 223.30,464.83 ZM 252.18 465.33 C253.18,464.43 254.00,462.46 254.00,460.97 C254.00,458.25 251.67,456.63 246.61,455.81 C243.77,455.35 242.32,452.52 243.93,450.58 C245.64,448.52 251.00,448.46 251.00,450.50 C251.00,451.33 251.45,452.00 252.00,452.00 C252.55,452.00 253.00,451.10 253.00,450.00 C253.00,448.32 252.33,448.00 248.83,448.00 C244.05,448.00 241.00,450.18 241.00,453.60 C241.00,456.19 242.07,457.08 246.89,458.50 C251.17,459.76 252.90,462.21 251.07,464.42 C249.27,466.59 243.38,466.48 242.08,464.25 C241.16,462.67 241.06,462.72 241.03,464.68 C240.98,468.29 248.43,468.73 252.18,465.33 ZM 443.25 464.02 C446.94,459.93 447.07,453.97 443.55,450.45 C439.85,446.76 432.87,446.98 428.92,450.92 C424.16,455.69 425.06,463.29 430.78,466.49 C434.76,468.72 439.93,467.70 443.25,464.02 ZM 603.25 464.02 C606.94,459.93 607.07,453.97 603.55,450.45 C601.58,448.49 600.07,448.00 596.00,448.00 C589.30,448.00 586.00,450.97 586.00,457.02 C586.00,462.07 587.23,464.50 590.78,466.49 C594.76,468.72 599.93,467.70 603.25,464.02 ZM 642.72 449.25 C644.15,448.17 643.91,448.01 640.94,448.08 C639.05,448.12 638.06,448.38 638.75,448.66 C639.60,449.00 640.00,451.61 640.00,456.73 L 640.00 464.29 L 633.38 456.15 C628.10,449.65 626.22,448.01 624.13,448.03 C621.86,448.06 621.74,448.20 623.25,449.08 C624.66,449.90 625.00,451.50 625.00,457.35 C625.00,461.66 624.51,465.09 623.80,465.80 C622.87,466.73 623.26,467.00 625.55,466.98 C627.49,466.97 628.05,466.69 627.20,466.15 C626.29,465.57 625.99,463.28 626.20,458.48 L 626.50 451.64 L 632.45 459.07 C635.72,463.16 638.87,466.82 639.45,467.22 C640.15,467.70 640.59,465.05 640.78,459.22 C640.99,452.48 641.43,450.22 642.72,449.25 ZM 56.92 465.25 C56.87,464.20 56.64,464.00 56.34,464.75 C56.05,465.45 54.11,466.00 51.92,466.00 C48.01,466.00 48.00,465.99 48.00,462.00 C48.00,458.25 48.18,458.00 50.92,458.00 C52.52,458.00 54.06,458.56 54.34,459.25 C54.62,459.94 54.84,459.15 54.84,457.50 C54.84,455.85 54.62,455.06 54.34,455.75 C54.06,456.44 52.52,457.00 50.92,457.00 C48.18,457.00 48.00,456.75 48.00,453.00 C48.00,449.11 48.09,449.00 51.45,449.00 C53.68,449.00 55.26,449.62 55.92,450.75 C56.83,452.31 56.94,452.26 56.97,450.25 C57.00,448.11 56.63,448.00 49.75,448.08 C45.76,448.12 43.06,448.38 43.75,448.66 C44.61,449.01 45.00,451.77 45.00,457.50 C45.00,463.23 44.61,465.99 43.75,466.34 C43.06,466.62 45.76,466.88 49.75,466.92 C56.05,466.99 56.99,466.77 56.92,465.25 ZM 127.06 465.97 C131.71,463.48 133.42,454.98 130.10,450.87 C128.44,448.82 127.15,448.48 119.91,448.15 C112.71,447.82 111.82,447.96 113.06,449.21 C114.17,450.31 114.38,452.53 114.00,458.82 L 113.50 467.00 L 119.32 467.00 C122.51,467.00 126.00,466.54 127.06,465.97 ZM 162.92 465.25 C162.87,464.20 162.64,464.00 162.34,464.75 C162.05,465.45 160.11,466.00 157.92,466.00 L 154.00 466.00 L 154.00 457.58 C154.00,451.79 154.39,449.01 155.25,448.66 C155.94,448.38 154.48,448.17 152.00,448.19 C149.52,448.22 148.32,448.44 149.32,448.70 C150.94,449.12 151.10,450.16 150.82,458.09 L 150.50 467.00 L 156.75 467.00 C162.06,467.00 162.99,466.74 162.92,465.25 ZM 195.00 465.30 C195.00,463.98 194.73,463.87 193.80,464.80 C193.14,465.46 190.89,466.00 188.80,466.00 C185.02,466.00 185.00,465.98 185.00,461.89 C185.00,457.78 185.00,457.78 188.50,458.19 C190.62,458.44 192.00,458.17 192.00,457.50 C192.00,456.83 190.61,456.56 188.43,456.82 L 184.87 457.23 L 185.18 453.37 C185.47,449.91 185.82,449.46 188.45,449.16 C190.41,448.94 191.84,449.42 192.70,450.61 C193.91,452.26 194.00,452.23 194.00,450.19 C194.00,448.13 193.55,448.00 186.75,448.03 C181.34,448.05 179.94,448.32 181.25,449.08 C182.67,449.91 183.00,451.51 183.00,457.50 C183.00,463.49 182.67,465.09 181.25,465.92 C179.95,466.68 181.50,466.95 187.25,466.97 C193.89,467.00 195.00,466.76 195.00,465.30 ZM 312.41 466.15 C312.70,465.68 310.70,465.51 307.97,465.78 L 303.00 466.25 L 303.00 462.13 C303.00,458.23 303.17,458.00 305.92,458.00 C307.52,458.00 309.06,458.56 309.34,459.25 C309.62,459.94 309.84,459.15 309.84,457.50 C309.84,455.85 309.62,455.06 309.34,455.75 C309.06,456.44 307.52,457.00 305.92,457.00 C303.18,457.00 303.00,456.75 303.00,453.00 C303.00,449.11 303.09,449.00 306.45,449.00 C308.68,449.00 310.26,449.62 310.92,450.75 C311.83,452.31 311.94,452.26 311.97,450.25 C312.00,448.11 311.63,448.00 304.75,448.08 C300.76,448.12 298.06,448.38 298.75,448.66 C299.61,449.01 300.00,451.77 300.00,457.50 C300.00,463.23 299.61,465.99 298.75,466.34 C298.06,466.62 300.74,466.88 304.69,466.92 C308.65,466.96 312.12,466.62 312.41,466.15 ZM 333.68 464.61 C334.68,463.29 335.98,461.40 336.58,460.41 C337.53,458.80 337.91,459.07 340.01,462.80 C341.45,465.36 343.09,467.00 344.21,467.00 C345.79,467.00 345.56,466.27 342.59,461.85 L 339.12 456.71 L 341.70 453.32 C343.12,451.46 345.01,449.52 345.89,449.00 C347.24,448.21 347.13,448.06 345.25,448.03 C344.01,448.01 343.00,448.34 343.00,448.75 C342.99,449.16 341.95,450.80 340.68,452.39 L 338.36 455.28 L 336.22 451.64 C334.87,449.36 333.31,448.00 332.04,448.00 C330.22,448.00 330.36,448.46 333.50,452.57 C337.37,457.64 337.29,458.34 332.15,463.84 C330.46,465.65 329.76,467.00 330.53,467.00 C331.26,467.00 332.67,465.92 333.68,464.61 ZM 369.25 466.34 C368.39,465.99 368.00,463.21 368.00,457.42 C368.00,449.22 368.06,449.00 370.38,449.00 C375.40,449.00 376.76,455.79 372.00,457.11 L 369.50 457.80 L 371.92 457.90 C377.04,458.11 380.24,451.27 376.07,449.04 C375.00,448.47 371.51,448.04 368.32,448.08 C365.12,448.12 363.06,448.38 363.75,448.66 C364.61,449.01 365.00,451.77 365.00,457.50 C365.00,463.23 364.61,465.99 363.75,466.34 C363.06,466.62 364.30,466.84 366.50,466.84 C368.70,466.84 369.94,466.62 369.25,466.34 ZM 408.98 465.25 C408.97,463.92 408.77,463.82 408.13,464.82 C407.61,465.65 405.84,466.02 403.40,465.82 L 399.50 465.50 L 399.20 458.02 C398.96,451.85 399.21,450.32 400.64,449.27 C402.14,448.18 401.77,448.02 397.94,448.12 C395.50,448.18 394.32,448.44 395.32,448.70 C396.94,449.12 397.10,450.16 396.82,458.09 L 396.50 467.00 L 402.75 467.00 C408.04,467.00 409.00,466.73 408.98,465.25 ZM 469.25 466.34 C468.39,465.99 468.00,463.21 468.00,457.42 C468.00,449.22 468.06,449.00 470.38,449.00 C475.44,449.00 476.33,455.04 471.51,456.68 L 469.11 457.50 L 472.56 462.25 C474.69,465.17 476.79,467.00 478.01,467.00 C479.98,467.00 479.98,466.98 478.07,465.07 C477.00,464.00 475.41,462.02 474.52,460.66 C472.97,458.31 473.02,458.07 475.45,455.64 C478.42,452.67 478.57,451.72 476.43,449.57 C475.32,448.46 473.05,448.02 468.68,448.08 C465.28,448.12 463.06,448.38 463.75,448.66 C464.61,449.01 465.00,451.77 465.00,457.50 C465.00,463.23 464.61,465.99 463.75,466.34 C463.06,466.62 464.30,466.84 466.50,466.84 C468.70,466.84 469.94,466.62 469.25,466.34 ZM 500.38 466.23 C499.65,465.76 499.55,464.69 500.09,463.25 C501.28,460.07 508.39,459.99 510.07,463.13 C510.96,464.79 510.91,465.44 509.85,466.11 C508.97,466.67 509.86,466.97 512.44,466.98 C515.76,467.00 516.14,466.80 514.82,465.75 C513.96,465.06 511.74,460.80 509.88,456.28 C508.02,451.75 506.23,448.04 505.91,448.03 C505.58,448.01 503.58,451.94 501.45,456.75 C499.33,461.56 497.12,465.83 496.55,466.23 C495.97,466.64 496.85,466.97 498.50,466.97 C500.15,466.97 500.99,466.64 500.38,466.23 ZM 540.25 466.34 C539.40,465.99 539.00,463.31 539.00,457.92 C539.00,450.14 539.04,450.00 541.50,450.00 C542.88,450.00 544.01,450.56 544.02,451.25 C544.03,452.59 545.96,450.15 545.98,448.75 C545.99,448.34 542.40,448.00 538.00,448.00 C530.35,448.00 530.00,448.10 530.08,450.25 C530.12,451.49 530.38,451.94 530.66,451.25 C530.94,450.56 532.25,450.00 533.58,450.00 C535.94,450.00 536.00,450.21 536.00,457.92 C536.00,463.31 535.60,465.99 534.75,466.34 C534.06,466.62 535.30,466.84 537.50,466.84 C539.70,466.84 540.94,466.62 540.25,466.34 ZM 568.25 466.34 C567.39,465.99 567.00,463.23 567.00,457.49 C567.00,450.38 567.26,449.08 568.75,448.69 C569.71,448.44 568.47,448.22 566.00,448.19 C563.53,448.17 562.06,448.38 562.75,448.66 C563.61,449.01 564.00,451.77 564.00,457.50 C564.00,463.23 563.61,465.99 562.75,466.34 C562.06,466.62 563.30,466.84 565.50,466.84 C567.70,466.84 568.94,466.62 568.25,466.34 ZM 560.60 405.16 C564.51,403.54 569.12,401.47 570.85,400.58 L 574.00 398.95 L 574.00 387.12 C574.00,380.62 573.71,372.56 573.36,369.21 C572.79,363.76 572.44,363.01 569.92,361.97 C565.41,360.10 564.66,361.36 565.30,369.73 C565.61,373.82 565.60,381.21 565.28,386.14 C564.72,394.69 564.57,395.17 561.90,396.55 C560.36,397.35 558.64,398.00 558.07,398.00 C557.42,398.00 556.95,391.55 556.77,380.25 L 556.50 362.50 L 552.75 362.19 L 549.00 361.88 L 549.00 383.51 C549.00,404.80 549.66,409.81 552.33,408.64 C552.97,408.35 556.70,406.79 560.60,405.16 ZM 135.50 404.43 C141.07,402.33 141.48,401.96 141.18,399.33 C140.70,395.03 139.57,394.51 134.76,396.35 C132.38,397.26 130.11,398.00 129.72,398.00 C129.32,398.00 129.00,396.05 129.00,393.67 C129.00,389.45 129.12,389.28 134.07,386.97 C140.15,384.12 140.35,383.86 138.85,380.57 C137.54,377.69 135.68,377.40 132.00,379.50 C128.35,381.59 128.00,381.39 128.01,377.25 C128.02,373.61 128.20,373.42 134.26,370.81 C139.57,368.51 140.46,367.77 140.22,365.81 C139.67,361.31 137.73,360.59 132.88,363.06 C130.04,364.52 126.95,365.24 124.09,365.14 L 119.69 364.97 L 120.34 379.24 C120.70,387.08 120.99,396.77 121.00,400.76 L 121.00 408.02 L 125.25 407.36 C127.59,406.99 132.20,405.67 135.50,404.43 ZM 313.43 407.02 C314.85,406.49 316.00,405.35 316.00,404.50 C316.00,402.67 309.94,384.50 306.00,374.50 C304.48,370.65 302.67,366.03 301.99,364.22 C300.97,361.56 300.34,361.07 298.62,361.58 C295.34,362.55 294.59,364.05 291.09,376.70 C289.29,383.19 286.74,391.73 285.41,395.67 C281.81,406.36 282.12,407.88 287.58,406.41 C289.07,406.01 290.02,404.46 290.92,400.93 C292.25,395.75 293.26,395.12 296.44,397.53 C299.14,399.57 301.73,399.36 303.00,397.00 C304.97,393.33 305.39,394.01 308.67,406.25 C309.21,408.26 309.89,408.37 313.43,407.02 ZM 416.48 405.90 C417.56,404.84 413.69,392.44 406.14,372.74 C402.10,362.20 401.42,361.05 399.57,361.59 C396.34,362.54 395.58,364.09 392.09,376.70 C390.29,383.19 387.74,391.73 386.41,395.67 C382.81,406.36 383.12,407.88 388.58,406.41 C390.07,406.01 391.02,404.46 391.92,400.93 C393.30,395.56 393.67,395.28 396.56,397.47 C399.39,399.61 402.54,399.32 404.26,396.75 C405.75,394.50 405.76,394.50 407.38,398.37 C408.27,400.50 409.00,402.83 409.00,403.54 C409.00,406.85 410.27,408.15 412.89,407.50 C414.32,407.15 415.94,406.43 416.48,405.90 ZM 619.54 400.78 C621.44,396.81 623.01,392.64 623.02,391.53 C623.04,390.30 620.65,387.34 616.94,383.99 L 610.83 378.48 L 614.92 371.76 C617.16,368.06 619.00,364.40 619.00,363.63 C619.00,362.18 613.03,360.69 611.85,361.86 C611.50,362.21 609.07,366.49 606.46,371.36 L 601.70 380.21 L 608.29 386.48 L 614.88 392.75 L 611.88 399.09 C609.06,405.04 608.99,405.52 610.63,406.72 C614.28,409.39 615.94,408.28 619.54,400.78 ZM 81.00 388.05 L 81.00 369.10 L 86.25 368.80 C91.09,368.52 91.52,368.30 91.81,365.85 L 92.11 363.20 L 80.59 362.48 C67.64,361.68 64.00,362.19 64.00,364.82 C64.00,367.74 65.92,368.82 70.09,368.26 L 74.00 367.74 L 73.76 373.62 C73.63,376.85 73.63,385.69 73.76,393.25 L 74.00 407.00 L 77.50 407.00 L 81.00 407.00 L 81.00 388.05 ZM 177.75 406.37 C179.57,405.88 180.00,405.06 180.00,402.04 C180.00,399.59 180.68,397.69 181.98,396.52 C184.38,394.35 185.35,394.98 190.60,402.13 C194.54,407.51 195.67,407.90 199.13,405.09 L 201.49 403.18 L 198.50 399.21 C196.85,397.02 194.21,393.61 192.64,391.63 L 189.79 388.03 L 194.44 382.85 C197.32,379.65 198.98,376.92 198.80,375.70 C198.36,372.79 180.54,362.12 176.00,362.06 L 172.50 362.00 L 172.56 380.25 C172.66,409.52 172.32,407.83 177.75,406.37 ZM 234.75 406.37 C236.65,405.86 237.00,405.08 237.00,401.42 C237.00,398.05 237.46,396.82 239.06,395.97 C241.59,394.62 242.64,395.38 247.60,402.13 C251.54,407.50 252.39,407.81 255.90,405.11 L 258.30 403.27 L 255.40 399.25 C253.80,397.04 251.19,393.58 249.59,391.57 L 246.69 387.90 L 250.28 384.20 C253.95,380.43 256.44,375.52 255.48,373.97 C255.19,373.50 251.64,371.29 247.59,369.05 C243.55,366.82 239.68,364.32 239.00,363.50 C238.26,362.61 236.07,362.00 233.63,362.00 L 229.50 362.00 L 229.56 382.75 C229.59,394.16 229.70,404.29 229.81,405.25 C230.01,407.10 231.10,407.35 234.75,406.37 ZM 451.76 406.08 C452.72,405.57 456.76,404.16 460.75,402.95 C467.46,400.91 468.00,400.54 468.00,398.00 C468.00,393.42 465.97,392.65 460.07,394.97 C457.24,396.09 454.50,397.00 453.99,397.00 C453.45,397.00 452.93,389.65 452.77,379.75 L 452.50 362.50 L 448.71 362.19 L 444.92 361.87 L 445.39 383.58 C445.74,400.10 446.17,405.49 447.18,406.13 C448.88,407.21 449.64,407.20 451.76,406.08 ZM 510.00 388.00 L 510.00 369.00 L 514.98 369.00 C519.48,369.00 520.02,368.76 520.60,366.45 C520.95,365.05 521.07,363.74 520.87,363.54 C520.10,362.78 497.06,361.77 494.59,362.39 C489.17,363.75 492.81,369.23 498.51,368.31 L 502.00 367.74 L 502.00 387.37 L 502.00 407.00 L 506.00 407.00 L 510.00 407.00 L 510.00 388.00 ZM 567.06 329.25 C565.90,327.74 563.52,324.48 561.76,322.00 C560.00,319.52 553.91,311.42 548.22,304.00 C542.53,296.58 534.06,285.44 529.38,279.25 C519.42,266.07 519.32,266.03 508.50,272.00 C504.51,274.20 500.75,276.00 500.14,276.00 C499.53,276.00 498.39,274.54 497.62,272.75 C496.85,270.96 489.48,255.77 481.25,239.00 C473.02,222.23 463.30,202.43 459.66,195.00 C456.02,187.57 452.15,179.93 451.07,178.00 C449.98,176.07 445.88,167.98 441.95,160.00 C434.04,143.93 432.70,142.00 429.47,142.00 C425.60,142.00 395.76,152.53 387.08,156.96 C383.86,158.60 383.07,159.66 382.07,163.70 C380.03,171.92 369.04,210.74 364.01,227.50 C361.37,236.30 358.25,246.76 357.08,250.75 C355.90,254.74 354.62,257.99 354.22,257.98 C353.82,257.96 346.79,251.44 338.58,243.48 C321.70,227.09 321.40,226.96 311.00,231.39 C291.16,239.85 280.71,244.00 279.25,244.00 C278.33,244.00 269.88,236.35 260.47,227.00 C241.47,208.11 240.29,207.46 235.53,213.25 C234.06,215.04 225.64,227.85 216.83,241.71 L 200.81 266.93 L 193.93 263.46 C190.15,261.56 185.93,260.00 184.55,260.00 C181.98,260.00 178.97,263.35 148.64,299.94 C142.51,307.33 135.70,315.54 133.50,318.18 C125.21,328.14 123.75,330.09 124.24,330.58 C124.52,330.85 138.16,317.34 154.55,300.54 C170.95,283.74 185.01,270.00 185.81,270.00 C186.60,270.00 190.51,271.80 194.50,274.00 C198.49,276.20 202.45,278.00 203.31,278.00 C204.83,278.00 206.13,276.39 215.46,263.00 C228.80,243.86 235.61,234.59 236.59,234.28 C237.19,234.10 238.96,236.99 240.53,240.72 C242.10,244.45 246.26,253.57 249.79,261.00 C253.32,268.42 257.04,276.42 258.07,278.76 L 259.93 283.01 L 250.90 287.55 C243.45,291.29 241.93,292.45 242.19,294.15 C242.43,295.79 247.82,298.73 267.87,308.16 C301.52,324.00 302.15,323.71 272.50,306.05 C263.15,300.48 255.50,295.41 255.50,294.77 C255.50,294.14 258.10,292.85 261.29,291.90 C268.09,289.88 270.00,288.51 270.00,285.66 C270.00,284.50 267.02,274.87 263.37,264.24 C259.73,253.61 257.05,244.62 257.42,244.25 C257.79,243.87 261.56,247.27 265.80,251.79 C271.53,257.90 274.15,260.00 276.04,260.00 C278.42,260.00 293.76,254.52 307.50,248.76 C318.75,244.04 316.20,242.83 335.59,262.11 C357.09,283.50 358.62,284.47 363.42,279.67 C365.93,277.16 365.93,277.16 377.90,236.00 C385.48,209.95 389.08,197.40 394.53,178.09 C395.83,173.46 397.48,169.32 398.19,168.88 C400.99,167.15 420.16,159.89 421.10,160.20 C422.47,160.66 426.47,172.17 430.07,186.00 C431.71,192.32 434.59,202.90 436.46,209.50 C438.34,216.10 442.41,230.73 445.53,242.00 C448.64,253.27 452.00,265.20 453.00,268.50 C454.00,271.80 454.52,274.79 454.16,275.14 C453.59,275.69 435.44,279.45 423.75,281.45 C421.06,281.91 420.00,282.59 420.00,283.87 C420.00,285.96 421.87,287.79 432.11,295.65 C436.29,298.87 445.19,305.95 451.89,311.38 C458.59,316.82 464.34,320.99 464.68,320.66 C465.23,320.11 461.19,316.16 445.55,302.00 C442.82,299.52 437.91,294.98 434.65,291.90 L 428.72 286.30 L 442.61 284.52 C463.57,281.84 462.51,282.27 462.44,276.42 C462.41,273.72 461.19,266.33 459.73,260.00 C455.07,239.76 448.00,206.23 448.00,204.39 C448.00,203.28 448.35,202.96 448.91,203.55 C449.76,204.44 456.90,217.26 464.76,232.00 C483.56,267.28 493.85,285.51 495.63,286.67 C497.85,288.13 500.21,287.07 512.05,279.32 C514.01,278.05 516.35,277.00 517.25,277.00 C518.15,277.00 520.91,279.48 523.38,282.52 C531.78,292.82 567.28,332.00 568.23,332.00 C568.74,332.00 568.22,330.76 567.06,329.25 ZM 507.71 212.25 C506.33,183.80 494.37,150.27 476.72,125.40 C468.98,114.50 450.72,96.05 441.47,89.78 C437.64,87.18 432.48,83.66 430.00,81.94 C418.60,74.03 395.83,64.72 377.11,60.30 C366.21,57.72 364.07,57.55 342.00,57.53 C323.53,57.51 316.68,57.87 309.99,59.24 C286.09,64.12 259.93,75.75 240.94,89.93 C223.16,103.21 205.53,123.47 194.78,143.00 C190.70,150.41 182.95,169.29 181.24,176.00 C176.97,192.71 174.92,206.48 175.12,217.00 L 175.23 222.50 L 176.07 218.50 C176.53,216.30 177.40,211.57 178.00,208.00 C184.04,172.09 200.77,140.78 227.73,114.90 C254.26,89.45 286.11,74.63 324.43,69.93 C341.43,67.84 367.31,70.13 387.50,75.50 C400.77,79.03 423.17,90.05 437.95,100.32 C448.17,107.42 465.13,124.39 474.45,136.83 C481.48,146.21 488.84,159.00 493.23,169.50 C494.15,171.70 495.67,175.30 496.60,177.50 C500.47,186.66 505.84,210.26 505.95,218.58 C506.00,222.32 506.57,224.00 507.80,224.00 C508.06,224.00 508.02,218.71 507.71,212.25 ZM 434.36 466.01 C429.38,464.00 427.29,455.88 430.56,451.22 C432.59,448.32 438.20,448.20 441.00,451.00 C444.01,454.01 443.76,461.33 440.55,464.55 C437.88,467.21 437.54,467.29 434.36,466.01 ZM 593.29 465.48 C589.79,464.01 589.00,462.37 589.00,456.57 C589.00,453.71 589.60,451.77 590.83,450.65 C592.71,448.96 597.64,448.46 599.60,449.77 C603.00,452.03 604.10,459.98 601.53,463.65 C599.59,466.43 596.94,467.02 593.29,465.48 ZM 117.00 457.37 L 117.00 448.74 L 121.69 449.27 C127.23,449.89 129.00,451.82 129.00,457.24 C129.00,462.37 125.50,466.00 120.55,466.00 L 117.00 466.00 L 117.00 457.37 ZM 502.00 459.65 C502.00,458.30 504.34,453.00 504.94,453.00 C505.73,453.00 508.00,457.47 508.00,459.05 C508.00,459.57 506.65,460.00 505.00,460.00 C503.35,460.00 502.00,459.84 502.00,459.65 ZM 296.19 384.75 C298.23,377.49 298.71,376.31 299.33,377.08 C299.94,377.85 303.73,390.50 303.45,390.83 C303.30,391.01 302.20,390.64 301.00,390.00 C299.26,389.07 298.49,389.15 297.09,390.42 C296.13,391.29 295.08,392.00 294.75,392.00 C294.42,392.00 295.07,388.74 296.19,384.75 ZM 396.45 387.25 C397.19,384.64 398.09,381.20 398.45,379.61 C399.30,375.89 400.25,377.02 402.80,384.75 C405.00,391.41 404.97,391.59 401.85,389.92 C400.29,389.09 399.44,389.20 398.09,390.42 C395.32,392.92 395.02,392.33 396.45,387.25 ZM 180.63 379.75 C180.99,375.76 181.39,372.36 181.53,372.19 C181.86,371.79 191.00,376.09 191.00,376.65 C191.00,377.52 181.70,387.00 180.86,387.00 C180.38,387.00 180.28,383.74 180.63,379.75 ZM 237.57 379.75 C237.95,375.76 238.38,372.36 238.53,372.18 C239.09,371.53 247.00,376.08 247.00,377.04 C247.00,378.35 239.02,387.00 237.81,387.00 C237.26,387.00 237.16,384.06 237.57,379.75 Z" fill="rgb(253,253,252)"/>
</g>
</svg>